<svg width="27" height="22" viewBox="0 0 27 22" fill="none" xmlns="http://www.w3.org/2000/svg">
<path d="M10.8707 10.8274C10.7702 10.8098 10.6696 10.801 10.5691 10.801H6.38313C3.3122 10.801 0.807922 13.1989 0.807922 16.159V16.6421C0.807922 19.5934 3.3122 22.0001 6.38313 22.0001H7.12344C9.189 22.0001 11.0078 20.911 11.9583 19.286C12.4336 18.5042 12.6986 17.6083 12.6986 16.6421V12.8388C12.6986 11.8111 11.8944 10.9591 10.8707 10.8274ZM10.8707 16.6421C10.8707 18.6272 9.189 20.2434 7.12344 20.2434H6.38313C4.31756 20.2434 2.63586 18.6272 2.63586 16.6421V16.159C2.63586 14.1739 4.31756 12.5577 6.38313 12.5577H10.5691C10.7336 12.5577 10.8707 12.6807 10.8707 12.8388V16.6421Z" fill="#A0A3B1"/>
<path d="M21.9208 0.682107H21.3175V0.646973H16.5558C13.4209 0.646973 10.8709 3.0976 10.8709 6.11037V16.0798C10.8709 17.2831 11.2731 18.3899 11.9585 19.2858C12.4338 18.504 12.6988 17.6081 12.6988 16.6419V6.11037C12.6988 4.06379 14.4262 2.40369 16.5558 2.40369H20.8606V2.41248H21.9208C23.6847 2.41248 25.1197 3.7915 25.1197 5.48674V9.51841C25.074 9.50963 25.0191 9.50963 24.9734 9.50963H21.3815C18.7493 9.50963 16.5923 11.565 16.5923 14.1035V14.5163C16.5923 17.046 18.7493 19.1189 21.3815 19.1189H22.0122C23.7853 19.1189 25.3481 18.179 26.1616 16.7825C26.4358 16.3345 26.6369 15.8426 26.7282 15.3068C26.8471 14.894 26.911 14.4724 26.911 14.0332V5.48674C26.911 2.83409 24.6718 0.682107 21.9208 0.682107ZM25.2293 14.5163C25.2293 14.7359 25.2019 14.9467 25.1653 15.1575C24.8546 16.5541 23.5568 17.6081 22.0122 17.6081H21.3815C19.6084 17.6081 18.1644 16.2203 18.1644 14.5163V14.1035C18.1644 12.3994 19.6084 11.0116 21.3815 11.0116H24.9734C25.0283 11.0116 25.074 11.0292 25.1197 11.0555C25.1836 11.0995 25.2293 11.1697 25.2293 11.2576V14.5163Z" fill="#A0A3B1"/>
</svg>
