<svg width="21" height="24" viewBox="0 0 21 24" fill="none" xmlns="http://www.w3.org/2000/svg">
<path d="M5.11875 6.31132C5.11875 9.29346 7.56798 11.7154 10.5792 11.7154C13.5906 11.7154 16.0396 9.28607 16.0396 6.30412C16.0396 3.32198 13.5904 0.9 10.5792 0.9C7.56789 0.9 5.11875 3.32207 5.11875 6.31132ZM6.77539 6.30412C6.77539 4.23425 8.47771 2.54134 10.5792 2.54134C12.6807 2.54134 14.383 4.23425 14.383 6.30412C14.383 8.37386 12.6735 10.0669 10.5792 10.0669C8.48488 10.0669 6.77539 8.37386 6.77539 6.30412Z" fill="#A0A3B1" stroke="#A0A3B1" stroke-width="0.2"/>
<path d="M15.6525 24.0001H5.50574C2.88034 24.0001 0.751648 21.6235 0.751648 18.6924C0.751648 15.7612 2.88921 13.3846 5.50574 13.3846H15.6525C18.2779 13.3846 20.4066 15.7711 20.4066 18.6924C20.4066 21.6136 18.2779 24.0001 15.6525 24.0001ZM5.50574 15.3651C3.86487 15.3651 2.52556 16.8604 2.52556 18.6924C2.52556 20.5243 3.86487 22.0196 5.50574 22.0196H15.6525C17.2934 22.0196 18.6327 20.5243 18.6327 18.6924C18.6327 16.8604 17.2934 15.3651 15.6525 15.3651H5.50574Z" fill="#A0A3B1"/>
</svg>
