<svg width="20" height="22" viewBox="0 0 20 22" fill="none" xmlns="http://www.w3.org/2000/svg">
<path d="M9.25256 22.0003C8.69319 22.0003 3.81478 21.9386 1.81574 19.6737C1.10048 18.863 0.825382 17.8495 1.00878 16.7479L1.02712 16.651C1.04546 16.5717 1.05463 16.5012 1.07297 16.4307L1.41226 15.144C1.7057 14.1658 2.0083 13.3374 2.34759 12.5619C2.72356 11.7159 3.20957 10.9051 3.87897 10.015C4.74095 8.86057 5.77715 7.55629 7.17098 6.75434C7.63865 6.48996 8.37224 6.18151 9.23422 6.23439C10.1054 6.18151 10.8298 6.48115 11.2975 6.75434C12.6363 7.52104 13.6725 8.77245 14.5986 10.015C15.2589 10.9051 15.7449 11.7159 16.13 12.5619C16.5518 13.4961 16.9095 14.5271 17.2212 15.6992L17.4138 16.4307C17.6981 17.6116 17.478 18.6955 16.7536 19.568C14.8187 21.9386 9.8211 22.0003 9.25256 22.0003ZM3.09036 15.9548L2.8336 16.9683C2.72356 17.638 2.84277 18.1227 3.21874 18.5369C4.45668 19.9381 7.99628 20.2466 9.25256 20.2466H9.26173C10.5455 20.2466 14.1493 19.9293 15.3414 18.484C15.7174 18.0346 15.8091 17.5058 15.644 16.8361L15.4698 16.1487C15.1763 15.0647 14.8462 14.1218 14.4703 13.2669C14.1401 12.5355 13.7183 11.8305 13.1314 11.0373C12.3795 10.0238 11.49 8.89582 10.3896 8.27012C10.0228 8.06743 9.65604 7.97049 9.33509 7.99693L9.25256 8.00574L9.16086 7.99693C8.84908 7.97049 8.47311 8.06743 8.12466 8.27012C7.03343 8.89582 6.13478 10.0238 5.38284 11.0373C4.79597 11.8305 4.37415 12.5355 4.04403 13.2669C3.73225 13.9631 3.45716 14.721 3.2004 15.5847L3.09036 15.9548Z" fill="#A0A3B1"/>
<path d="M15.6073 7.42394C13.6633 7.42394 12.0861 5.90815 12.0861 4.03986C12.0861 2.17157 13.6633 0.646973 15.6073 0.646973C17.5513 0.646973 19.1286 2.16276 19.1286 4.03105C19.1286 5.89934 17.5513 7.42394 15.6073 7.42394ZM15.6073 2.40951C14.672 2.40951 13.92 3.14097 13.92 4.03105C13.92 4.92113 14.6812 5.65258 15.6073 5.65258C16.5335 5.65258 17.2946 4.92113 17.2946 4.03105C17.2946 3.14097 16.5335 2.40951 15.6073 2.40951Z" fill="#A0A3B1"/>
</svg>
