<svg width="22" height="22" viewBox="0 0 22 22" fill="none" xmlns="http://www.w3.org/2000/svg">
<path d="M20.6116 7.50594L12.9441 0.819133C11.8487 -0.265457 10.0654 -0.265456 9.01527 0.774315L1.2572 7.55076C0.505836 8.29473 0.0894165 9.28969 0.0894165 10.3474V19.302C0.0894165 20.7899 1.31152 22 2.81425 22H19.1089C20.6026 22 21.8247 20.7899 21.8247 19.302V10.3474C21.8247 9.28969 21.4083 8.29473 20.6116 7.50594ZM20.0142 19.302C20.0142 19.8039 19.6068 20.2073 19.1089 20.2073H13.3696V14.4348C13.3696 13.9149 12.9531 13.5026 12.4281 13.5026H9.486C8.97001 13.5026 8.54454 13.9149 8.54454 14.4348V20.2073H2.81425C2.3073 20.2073 1.89993 19.8039 1.89993 19.302V10.3474C1.89993 9.78268 2.1353 9.21798 2.49741 8.85047L10.2555 2.08299C10.4456 1.89476 10.69 1.79616 10.9435 1.79616C11.215 1.79616 11.4866 1.90372 11.7039 2.11885L19.3714 8.81462C19.7879 9.22694 20.0142 9.77372 20.0142 10.3474V19.302Z" fill="#A0A3B1"/>
</svg>
